HIERARCHY
ROOT hip
{
  OFFSET 0.0 0.0 0.0
  CHANNELS 6 Xposition Yposition Zposition Zrotation Yrotation Xrotation
  JOINT torso
  {
    OFFSET 0.0 0.0 0.0
    CHANNELS 3 Zrotation Xrotation Yrotation
    JOINT neck
    {
      OFFSET -8.059630999999968 325.56260699999996 64.6221310000002
      CHANNELS 3 Zrotation Xrotation Yrotation
      JOINT head
      {
        OFFSET 34.685424000000125 375.1179809999999 232.79357900000002
        CHANNELS 3 Zrotation Xrotation Yrotation
        End Site
        {
          OFFSET 0.0 0.0 0.0
        }
      }
    }
    JOINT left_collar
    {
      OFFSET -8.059630999999968 325.56260699999996 64.6221310000002
      CHANNELS 3 Zrotation Xrotation Yrotation
      JOINT left_upper_arm
      {
        OFFSET -124.124665 -15.370300999999927 25.582641999999964
        CHANNELS 3 Zrotation Xrotation Yrotation
        JOINT left_forearm
        {
          OFFSET -268.19913399999996 105.06054699999993 114.74548300000004
          CHANNELS 3 Zrotation Xrotation Yrotation
          JOINT left_hand
          {
            OFFSET -235.82003099999991 -10.198180999999977 -38.67455999999993
            CHANNELS 3 Zrotation Xrotation Yrotation
            End Site
            {
              OFFSET 0.0 0.0 0.0
            }
          }
        }
      }
    }
    JOINT right_collar
    {
      OFFSET -8.059630999999968 325.56260699999996 64.6221310000002
      CHANNELS 3 Zrotation Xrotation Yrotation
      JOINT right_upper_arm
      {
        OFFSET 162.73931899999997 -2.8598030000000563 26.244994999999903
        CHANNELS 3 Zrotation Xrotation Yrotation
        JOINT right_forearm
        {
          OFFSET 284.6506340000001 103.07031299999994 145.84521499999994
          CHANNELS 3 Zrotation Xrotation Yrotation
          JOINT right_hand
          {
            OFFSET 226.332337 -12.198241999999937 -49.27258299999994
            CHANNELS 3 Zrotation Xrotation Yrotation
            End Site
            {
              OFFSET 0.0 0.0 0.0
            }
          }
        }
      }
    }
  }
}
MOTION
Frames: 11
Frame Time: 0.01
376.37313098436545 126.36575054797272 202.6892992491634 10.603571694635487 -25.764925743014935 -1.3764860964148806 -0.6283370099523398 0.9375576625282689 0.14300461009183338 5.014139666838219 5.5450305793648695 -3.473129912205016 0.0 0.0 0.0 5.023078269965974 -1.0896954188886043 12.737495169970419 53.40240866983995 25.096823352066995 -27.877096709192823 9.548632830840159 1.3578057709725762 -23.09584086732754 0.0 0.0 0.0 -4.363202294399523 0.2553701414180046 -7.9973471221124175 -20.663991610030138 -4.958655347548366 69.29035783517858 8.627151131421993 1.1091042527318506 31.657551384006826 0.0 0.0 0.0
375.87499727583327 126.18746156171412 203.26436573273293 10.535554389366267 -25.842417178675277 -1.2535810645591448 -0.6202752553941951 0.9624069215656817 0.14195580926468376 5.082871323208409 5.601132101189976 -3.517218126218361 0.0 0.0 0.0 4.985979486169091 -1.077995814529591 12.645689930020863 53.34051644898594 25.1051407956937 -28.12944888206915 9.489514773115177 1.3415294802891715 -22.985140964338736 0.0 0.0 0.0 -4.475177464305712 0.25706504839004723 -8.146366301438157 -21.198041874351283 -4.053455773727329 69.38216654322945 4.5411791748292645 1.359239991288857 31.19425330143991 0.0 0.0 0.0
375.4896643064752 126.09193787923012 203.62832957975618 10.46166903670534 -25.861091503235563 -1.1348651972171029 -0.6083740725346009 0.9862595449434212 0.14016068512699525 5.159767956044839 5.597379418752606 -3.561925239629673 0.0 0.0 0.0 4.942462499321179 -1.057066708217787 12.493667347395046 53.310382856458055 25.106278916423634 -28.237506732579384 9.48185505316667 1.3269315716797134 -22.871322435039037 0.0 0.0 0.0 -4.556870696245051 0.2558101821052345 -8.295290938976214 -21.678832472748077 -3.076481001474801 69.04187874556575 0.7040503726313034 1.5757117983706008 31.014706875241526 0.0 0.0 0.0
375.23258135773926 126.0824166954184 203.77694374291247 10.383325088304735 -25.817473750309407 -1.0261620026419196 -0.5923856083994155 1.0083262322609443 0.13755847798996082 5.243632296023498 5.531545006917645 -3.606479215747588 0.0 0.0 0.0 4.8925857729106195 -1.0271687933302551 12.28250570888773 53.31320247103109 25.09961567362883 -28.193082034409258 9.527723277626123 1.314240213504712 -22.75682238129726 0.0 0.0 0.0 -4.607078836607496 0.25175923185507604 -8.441717026996942 -22.10115399352944 -2.0615364033625796 68.26958178259981 -2.9260386362139554 1.7924203427292873 31.135292915247202 0.0 0.0 0.0
375.12052304259294 126.16282609804523 203.70809058912542 10.30245389369444 -25.708454220713215 -0.9343878662630194 -0.5720224148637362 1.0277522860506316 0.13407904304773638 5.332639210797352 5.402097716937652 -3.649815182395637 0.0 0.0 0.0 4.836675062257309 -0.9887952968466346 12.014773969455266 53.34881080916661 25.083861736689737 -27.990098646931926 9.628517436513253 1.3036244956327057 -22.643865153569884 0.0 0.0 0.0 -4.625265060312137 0.24519289128283692 -8.5821649153857 -22.45916402943554 -1.0457385026255022 67.07598423250045 -6.383153507756604 2.0407648124811977 31.56405122626975 0.0 0.0 0.0
375.1709654604396 126.33762055045554 203.42194040295118 10.221401529092404 -25.53144349869083 -0.8672876000107254 -0.5469998596158113 1.0436525953838311 0.12965123525301847 5.424432725302179 5.20831379265709 -3.690631116078416 0.0 0.0 0.0 4.77538316910856 -0.9426542870467552 11.694511235024347 53.41558726139138 25.057074305935647 -27.624974639920936 9.784886870076747 1.2951927757365278 -22.5343641789822 0.0 0.0 0.0 -4.611532955280537 0.2364984083551231 -8.71219078094994 -22.74559715713193 -0.06733919926951938 65.48312451220139 -9.691841469545961 2.349478077713117 32.303098826534395 0.0 0.0 0.0
375.4013666208837 126.61155362540063 202.92107927686953 10.142781715130239 -25.28452549167355 -0.8331075101837585 -0.5170849014588513 1.0551535213449765 0.12421257639254578 5.516260297257838 4.950369804625266 -3.7274599103036885 0.0 0.0 0.0 4.7097277110166855 -0.8896401479212087 11.327148273743363 53.510429380150434 25.016746120728236 -27.096934367512343 9.99667144155705 1.2889907257963926 -22.42983248286748 0.0 0.0 0.0 -4.566580036249601 0.22613996190130853 -8.826564473581103 -22.951270635717645 0.8368141731006288 63.52477003740213 -12.865306734134759 2.7444487305016065 33.35018194382857 0.0 0.0 0.0
375.82838439117864 126.98939972153065 202.2105940901636 10.069299825156575 -24.966600325053506 -0.8402218248010711 -0.4821461792129902 1.061440512467132 0.11771929109017928 5.605134690673764 4.6294102328057 -3.758753245765361 0.0 0.0 0.0 4.641099494153478 -0.8307960865371976 10.919371838806903 53.62880944845355 24.959969808215437 -26.408224838754677 10.262860291370073 1.2849986552447727 -22.331309260203227 0.0 0.0 0.0 -4.491636291920361 0.214622654043851 -8.919506786425666 -23.065112864046743 1.6339704894376583 61.24619167743141 -15.90357066545466 3.2482524054568542 34.699839882471345 0.0 0.0 0.0
376.4670706572606 127.4756402833741 201.29810314827253 10.003562989246678 -24.577509170831863 -0.896733240510819 -0.4421998914172516 1.0618091266221572 0.11015571976322469 5.688010840873797 4.247583706129983 -3.7829715855331547 0.0 0.0 0.0 4.5712367258993325 -0.7672705976701133 10.478935607917846 53.7649197143586 24.883667464085597 -25.564214551711547 10.581572791895638 1.283128014724046 -22.239309384716833 0.0 0.0 0.0 -4.388393657953122 0.20245367563536365 -8.984974378371477 -23.074855781487305 2.2979856336144744 58.70299346782919 -18.791818569561148 3.879264559254337 36.344608829780164 0.0 0.0 0.0
377.33008288093555 128.07413275142548 200.1937230682908 9.947893924351305 -24.11813392061206 -1.0100718974228962 -0.3974463014877862 1.0557160136206665 0.10154217810339906 5.761963249586142 3.8080438180803693 -3.798673861494318 0.0 0.0 0.0 4.502163807397349 -0.700271544898605 10.014424541687829 53.911906534776676 24.784865466920934 -24.573359569591844 10.950063452357883 1.2832173943248204 -22.153801262616266 0.0 0.0 0.0 -4.258931836150485 0.19010452962495278 -9.016976097749382 -22.968371334195268 2.8112504608135804 55.95880640763457 -21.499228618697945 4.650334508085126 38.276539863530495 0.0 0.0 0.0
378.4269536330881 128.7877817312193 198.90996554663016 9.904166659854065 -23.590465924167123 -1.1866184200205303 -0.34829276675760507 1.0428255842557823 0.09194050532223232 5.824349082730232 3.3149127574037482 -3.8046001471007282 0.0 0.0 0.0 4.436097396187654 -0.6310217199160235 9.534982083513412 54.06218607093396 24.660986742706335 -23.447030683917617 11.364751677359399 1.2850287543407721 -22.074216119752197 0.0 0.0 0.0 -4.105644881213892 0.17797804970931774 -9.009901000397095 -22.73543097753194 3.1656715151639716 53.081908859731094 -23.978574974841234 5.567058720999462 40.48906138510912 0.0 0.0 0.0
